<svg width="264" height="47" viewBox="0 0 264 47" fill="none" xmlns="http://www.w3.org/2000/svg">
<path d="M24.14 31.88L9.86 26.45V22.55L24.14 17.12V20.87L11.27 25.55V23.45L24.14 28.13V31.88ZM38.499 35.36C36.879 35.36 35.369 35.1 33.969 34.58C32.589 34.04 31.389 33.28 30.369 32.3C29.349 31.32 28.549 30.17 27.969 28.85C27.409 27.53 27.129 26.08 27.129 24.5C27.129 22.92 27.409 21.47 27.969 20.15C28.549 18.83 29.349 17.68 30.369 16.7C31.409 15.72 32.619 14.97 33.999 14.45C35.379 13.91 36.889 13.64 38.529 13.64C40.349 13.64 41.989 13.96 43.449 14.6C44.929 15.22 46.169 16.14 47.169 17.36L44.049 20.24C43.329 19.42 42.529 18.81 41.649 18.41C40.769 17.99 39.809 17.78 38.769 17.78C37.789 17.78 36.889 17.94 36.069 18.26C35.249 18.58 34.539 19.04 33.939 19.64C33.339 20.24 32.869 20.95 32.529 21.77C32.209 22.59 32.049 23.5 32.049 24.5C32.049 25.5 32.209 26.41 32.529 27.23C32.869 28.05 33.339 28.76 33.939 29.36C34.539 29.96 35.249 30.42 36.069 30.74C36.889 31.06 37.789 31.22 38.769 31.22C39.809 31.22 40.769 31.02 41.649 30.62C42.529 30.2 43.329 29.57 44.049 28.73L47.169 31.61C46.169 32.83 44.929 33.76 43.449 34.4C41.989 35.04 40.339 35.36 38.499 35.36ZM59.933 35V31.85L59.633 31.16V25.52C59.633 24.52 59.323 23.74 58.703 23.18C58.103 22.62 57.173 22.34 55.913 22.34C55.053 22.34 54.203 22.48 53.363 22.76C52.543 23.02 51.843 23.38 51.263 23.84L49.583 20.57C50.463 19.95 51.523 19.47 52.763 19.13C54.003 18.79 55.263 18.62 56.543 18.62C59.003 18.62 60.913 19.2 62.273 20.36C63.633 21.52 64.313 23.33 64.313 25.79V35H59.933ZM55.013 35.24C53.753 35.24 52.673 35.03 51.773 34.61C50.873 34.17 50.183 33.58 49.703 32.84C49.223 32.1 48.983 31.27 48.983 30.35C48.983 29.39 49.213 28.55 49.673 27.83C50.153 27.11 50.903 26.55 51.923 26.15C52.943 25.73 54.273 25.52 55.913 25.52H60.203V28.25H56.423C55.323 28.25 54.563 28.43 54.143 28.79C53.743 29.15 53.543 29.6 53.543 30.14C53.543 30.74 53.773 31.22 54.233 31.58C54.713 31.92 55.363 32.09 56.183 32.09C56.963 32.09 57.663 31.91 58.283 31.55C58.903 31.17 59.353 30.62 59.633 29.9L60.353 32.06C60.013 33.1 59.393 33.89 58.493 34.43C57.593 34.97 56.433 35.24 55.013 35.24ZM68.5487 35V18.86H73.0187V23.42L72.3887 22.1C72.8687 20.96 73.6387 20.1 74.6987 19.52C75.7587 18.92 77.0487 18.62 78.5687 18.62V22.94C78.3687 22.92 78.1887 22.91 78.0287 22.91C77.8687 22.89 77.6987 22.88 77.5187 22.88C76.2387 22.88 75.1987 23.25 74.3987 23.99C73.6187 24.71 73.2287 25.84 73.2287 27.38V35H68.5487ZM90.1967 35V31.85L89.8967 31.16V25.52C89.8967 24.52 89.5867 23.74 88.9667 23.18C88.3667 22.62 87.4367 22.34 86.1767 22.34C85.3167 22.34 84.4667 22.48 83.6267 22.76C82.8067 23.02 82.1067 23.38 81.5267 23.84L79.8467 20.57C80.7267 19.95 81.7867 19.47 83.0267 19.13C84.2667 18.79 85.5267 18.62 86.8067 18.62C89.2667 18.62 91.1767 19.2 92.5367 20.36C93.8967 21.52 94.5767 23.33 94.5767 25.79V35H90.1967ZM85.2767 35.24C84.0167 35.24 82.9367 35.03 82.0367 34.61C81.1367 34.17 80.4467 33.58 79.9667 32.84C79.4867 32.1 79.2467 31.27 79.2467 30.35C79.2467 29.39 79.4767 28.55 79.9367 27.83C80.4167 27.11 81.1667 26.55 82.1867 26.15C83.2067 25.73 84.5367 25.52 86.1767 25.52H90.4667V28.25H86.6867C85.5867 28.25 84.8267 28.43 84.4067 28.79C84.0067 29.15 83.8067 29.6 83.8067 30.14C83.8067 30.74 84.0367 31.22 84.4967 31.58C84.9767 31.92 85.6267 32.09 86.4467 32.09C87.2267 32.09 87.9267 31.91 88.5467 31.55C89.1667 31.17 89.6167 30.62 89.8967 29.9L90.6167 32.06C90.2767 33.1 89.6567 33.89 88.7567 34.43C87.8567 34.97 86.6967 35.24 85.2767 35.24ZM99.1423 35V14H103.162L115.552 29.12H113.602V14H118.402V35H114.412L101.992 19.88H103.942V35H99.1423ZM130.631 41.06C129.111 41.06 127.641 40.87 126.221 40.49C124.821 40.13 123.651 39.58 122.711 38.84L124.571 35.48C125.251 36.04 126.111 36.48 127.151 36.8C128.211 37.14 129.251 37.31 130.271 37.31C131.931 37.31 133.131 36.94 133.871 36.2C134.631 35.46 135.011 34.36 135.011 32.9V30.47L135.311 26.42L135.251 22.34V18.86H139.691V32.3C139.691 35.3 138.911 37.51 137.351 38.93C135.791 40.35 133.551 41.06 130.631 41.06ZM129.911 34.22C128.411 34.22 127.051 33.9 125.831 33.26C124.631 32.6 123.661 31.69 122.921 30.53C122.201 29.35 121.841 27.98 121.841 26.42C121.841 24.84 122.201 23.47 122.921 22.31C123.661 21.13 124.631 20.22 125.831 19.58C127.051 18.94 128.411 18.62 129.911 18.62C131.271 18.62 132.471 18.9 133.511 19.46C134.551 20 135.361 20.85 135.941 22.01C136.521 23.15 136.811 24.62 136.811 26.42C136.811 28.2 136.521 29.67 135.941 30.83C135.361 31.97 134.551 32.82 133.511 33.38C132.471 33.94 131.271 34.22 129.911 34.22ZM130.841 30.38C131.661 30.38 132.391 30.22 133.031 29.9C133.671 29.56 134.171 29.09 134.531 28.49C134.891 27.89 135.071 27.2 135.071 26.42C135.071 25.62 134.891 24.93 134.531 24.35C134.171 23.75 133.671 23.29 133.031 22.97C132.391 22.63 131.661 22.46 130.841 22.46C130.021 22.46 129.291 22.63 128.651 22.97C128.011 23.29 127.501 23.75 127.121 24.35C126.761 24.93 126.581 25.62 126.581 26.42C126.581 27.2 126.761 27.89 127.121 28.49C127.501 29.09 128.011 29.56 128.651 29.9C129.291 30.22 130.021 30.38 130.841 30.38ZM151.727 35.24C150.007 35.24 148.477 34.88 147.137 34.16C145.817 33.44 144.767 32.46 143.987 31.22C143.227 29.96 142.847 28.53 142.847 26.93C142.847 25.31 143.227 23.88 143.987 22.64C144.767 21.38 145.817 20.4 147.137 19.7C148.477 18.98 150.007 18.62 151.727 18.62C153.427 18.62 154.947 18.98 156.287 19.7C157.627 20.4 158.677 21.37 159.437 22.61C160.197 23.85 160.577 25.29 160.577 26.93C160.577 28.53 160.197 29.96 159.437 31.22C158.677 32.46 157.627 33.44 156.287 34.16C154.947 34.88 153.427 35.24 151.727 35.24ZM151.727 31.4C152.507 31.4 153.207 31.22 153.827 30.86C154.447 30.5 154.937 29.99 155.297 29.33C155.657 28.65 155.837 27.85 155.837 26.93C155.837 25.99 155.657 25.19 155.297 24.53C154.937 23.87 154.447 23.36 153.827 23C153.207 22.64 152.507 22.46 151.727 22.46C150.947 22.46 150.247 22.64 149.627 23C149.007 23.36 148.507 23.87 148.127 24.53C147.767 25.19 147.587 25.99 147.587 26.93C147.587 27.85 147.767 28.65 148.127 29.33C148.507 29.99 149.007 30.5 149.627 30.86C150.247 31.22 150.947 31.4 151.727 31.4ZM170.635 35.24C169.115 35.24 167.745 34.9 166.525 34.22C165.305 33.52 164.335 32.55 163.615 31.31C162.915 30.07 162.565 28.61 162.565 26.93C162.565 25.23 162.915 23.76 163.615 22.52C164.335 21.28 165.305 20.32 166.525 19.64C167.745 18.96 169.115 18.62 170.635 18.62C171.995 18.62 173.185 18.92 174.205 19.52C175.225 20.12 176.015 21.03 176.575 22.25C177.135 23.47 177.415 25.03 177.415 26.93C177.415 28.81 177.145 30.37 176.605 31.61C176.065 32.83 175.285 33.74 174.265 34.34C173.265 34.94 172.055 35.24 170.635 35.24ZM171.445 31.4C172.205 31.4 172.895 31.22 173.515 30.86C174.135 30.5 174.625 29.99 174.985 29.33C175.365 28.65 175.555 27.85 175.555 26.93C175.555 25.99 175.365 25.19 174.985 24.53C174.625 23.87 174.135 23.36 173.515 23C172.895 22.64 172.205 22.46 171.445 22.46C170.665 22.46 169.965 22.64 169.345 23C168.725 23.36 168.225 23.87 167.845 24.53C167.485 25.19 167.305 25.99 167.305 26.93C167.305 27.85 167.485 28.65 167.845 29.33C168.225 29.99 168.725 30.5 169.345 30.86C169.965 31.22 170.665 31.4 171.445 31.4ZM175.675 35V31.7L175.765 26.9L175.465 22.13V12.74H180.145V35H175.675ZM184.476 35V18.86H189.156V35H184.476ZM186.816 16.61C185.956 16.61 185.256 16.36 184.716 15.86C184.176 15.36 183.906 14.74 183.906 14C183.906 13.26 184.176 12.64 184.716 12.14C185.256 11.64 185.956 11.39 186.816 11.39C187.676 11.39 188.376 11.63 188.916 12.11C189.456 12.57 189.726 13.17 189.726 13.91C189.726 14.69 189.456 15.34 188.916 15.86C188.396 16.36 187.696 16.61 186.816 16.61ZM203.31 18.62C204.59 18.62 205.73 18.88 206.73 19.4C207.75 19.9 208.55 20.68 209.13 21.74C209.71 22.78 210 24.12 210 25.76V35H205.32V26.48C205.32 25.18 205.03 24.22 204.45 23.6C203.89 22.98 203.09 22.67 202.05 22.67C201.31 22.67 200.64 22.83 200.04 23.15C199.46 23.45 199 23.92 198.66 24.56C198.34 25.2 198.18 26.02 198.18 27.02V35H193.5V18.86H197.97V23.33L197.13 21.98C197.71 20.9 198.54 20.07 199.62 19.49C200.7 18.91 201.93 18.62 203.31 18.62ZM221.949 41.06C220.429 41.06 218.959 40.87 217.539 40.49C216.139 40.13 214.969 39.58 214.029 38.84L215.889 35.48C216.569 36.04 217.429 36.48 218.469 36.8C219.529 37.14 220.569 37.31 221.589 37.31C223.249 37.31 224.449 36.94 225.189 36.2C225.949 35.46 226.329 34.36 226.329 32.9V30.47L226.629 26.42L226.569 22.34V18.86H231.009V32.3C231.009 35.3 230.229 37.51 228.669 38.93C227.109 40.35 224.869 41.06 221.949 41.06ZM221.229 34.22C219.729 34.22 218.369 33.9 217.149 33.26C215.949 32.6 214.979 31.69 214.239 30.53C213.519 29.35 213.159 27.98 213.159 26.42C213.159 24.84 213.519 23.47 214.239 22.31C214.979 21.13 215.949 20.22 217.149 19.58C218.369 18.94 219.729 18.62 221.229 18.62C222.589 18.62 223.789 18.9 224.829 19.46C225.869 20 226.679 20.85 227.259 22.01C227.839 23.15 228.129 24.62 228.129 26.42C228.129 28.2 227.839 29.67 227.259 30.83C226.679 31.97 225.869 32.82 224.829 33.38C223.789 33.94 222.589 34.22 221.229 34.22ZM222.159 30.38C222.979 30.38 223.709 30.22 224.349 29.9C224.989 29.56 225.489 29.09 225.849 28.49C226.209 27.89 226.389 27.2 226.389 26.42C226.389 25.62 226.209 24.93 225.849 24.35C225.489 23.75 224.989 23.29 224.349 22.97C223.709 22.63 222.979 22.46 222.159 22.46C221.339 22.46 220.609 22.63 219.969 22.97C219.329 23.29 218.819 23.75 218.439 24.35C218.079 24.93 217.899 25.62 217.899 26.42C217.899 27.2 218.079 27.89 218.439 28.49C218.819 29.09 219.329 29.56 219.969 29.9C220.609 30.22 221.339 30.38 222.159 30.38ZM232.215 38L242.115 9.74H246.285L236.385 38H232.215ZM246.813 31.88V28.13L259.683 23.45V25.55L246.813 20.87V17.12L261.093 22.55V26.45L246.813 31.88Z" fill="#2196F3"/>
</svg>
